<svg xmlns="http://www.w3.org/2000/svg" viewBox="0 0 112.000000 236.000000" preserveAspectRatio="xMidYMid meet" width="166" height="166">
<g transform="translate(0.000000,236.000000) scale(0.100000,-0.100000)" fill="#ffffff" stroke="none">
<path fill-rule="evenodd" clip-rule="evenodd" d="M499 2211 l-29 -29 0 -242 0 -242 29 -29 c24 -23 38 -29 74 -29 38 0 49 5 71 31 l26 31 0 238 0 238 -26 31 c-22 26 -33 31 -71 31 -36 0 -50 -6 -74 -29z"/>
<path fill-rule="evenodd" clip-rule="evenodd" d="M700 1985 c0 -113 0 -115 33 -160 l32 -47 3 -169 3 -169 110 0 109 0 0 153 c0 215 -22 292 -114 393 -37 41 -145 114 -170 114 -3 0 -6 -52 -6 -115z"/>
<path fill-rule="evenodd" clip-rule="evenodd" d="M355 2061 c-68 -39 -130 -109 -168 -189 -32 -67 -32 -68 -35 -259 -6 -271 14 -361 100 -458 31 -36 121 -95 146 -95 9 0 12 30 12 116 0 101 -3 119 -20 141 -19 24 -20 41 -20 237 l0 212 30 47 c29 46 30 52 30 162 0 85 -3 115 -12 115 -7 0 -36 -13 -63 -29z"/>
<path fill-rule="evenodd" clip-rule="evenodd" d="M499 1421 l-29 -29 0 -242 0 -242 29 -29 c24 -23 38 -29 74 -29 38 0 49 5 71 31 l26 31 0 238 0 238 -26 31 c-22 26 -33 31 -71 31 -36 0 -50 -6 -74 -29z"/>
<path fill-rule="evenodd" clip-rule="evenodd" d="M730 1131 c0 -103 3 -125 20 -153 18 -30 20 -51 20 -231 0 -214 -5 -242 -54 -286 -25 -24 -26 -28 -26 -143 0 -65 3 -118 6 -118 3 0 31 12 62 28 71 34 152 114 186 183 40 83 48 152 44 368 -4 216 -15 262 -78 348 -30 41 -117 106 -157 118 -23 6 -23 6 -23 -114z"/>
<path fill-rule="evenodd" clip-rule="evenodd" d="M150 717 c0 -155 12 -232 47 -304 31 -63 107 -141 173 -177 l50 -27 0 126 c0 116 -2 130 -22 158 -21 30 -23 45 -26 195 l-3 162 -110 0 -109 0 0 -133z"/>
<path fill-rule="evenodd" clip-rule="evenodd" d="M489 601 l-29 -29 0 -242 0 -242 29 -29 c24 -23 38 -29 74 -29 38 0 49 5 71 31 l26 31 0 238 0 238 -26 31 c-22 26 -33 31 -71 31 -36 0 -50 -6 -74 -29z"/>
</g>
</svg>